# xmcd
#
# Track frame offsets: 
#        150
#        18098
#        34487
#        56415
#        80482
#        103958
#        124446
#        142802
#        151120
#        171540
#        187991
#        208927
#        226918
#        247025
#        268045
#        286083
#        305716
#        331742
#
# Disc length: 4693 seconds
#
# Revision: 0
# Processed by: cddbd v1.5.2PL0 Copyright (c) Steve Scherf et al.
# Submitted via: ExactAudioCopy v0.99pb5
#
DISCID=02125312
DTITLE=The Game - LAX
DYEAR=2008
DGENRE=RAP
TTITLE0=LAX Files
TTITLE1=State of Emergency
TTITLE2=Bulletproof Diaries
TTITLE3=My Life
TTITLE4=Money
TTITLE5=Cali Sunshine
TTITLE6=Ya Heard
TTITLE7=Hard Liquor
TTITLE8=House of Pain
TTITLE9=Gentlemans Affair
TTITLE10=Let us Live
TTITLE11=Touchdown
TTITLE12=Angel
TTITLE13=Never can say Goodbye
TTITLE14=Dope Boys
TTITLE15=Games Pain
TTITLE16=Letter to the King
TTITLE17=Camera Phone
EXTD=
EXTT0=
EXTT1=
EXTT2=
EXTT3=
EXTT4=
EXTT5=
EXTT6=
EXTT7=
EXTT8=
EXTT9=
EXTT10=
EXTT11=
EXTT12=
EXTT13=
EXTT14=
EXTT15=
EXTT16=
EXTT17=
PLAYORDER=
